<?xml version="1.0" encoding="UTF-8" standalone="no"?>
<svg
   width="32"
   height="32"
   viewBox="0 0 32 32"
   version="1.1"
   id="svg8"
   sodipodi:docname="ZoneIndustrialManufacturing_Forestry.svg"
   inkscape:version="1.4.2 (f4327f4, 2025-05-13)"
   xmlns:inkscape="http://www.inkscape.org/namespaces/inkscape"
   xmlns:sodipodi="http://sodipodi.sourceforge.net/DTD/sodipodi-0.dtd"
   xmlns="http://www.w3.org/2000/svg"
   xmlns:svg="http://www.w3.org/2000/svg">
  <sodipodi:namedview
     id="namedview8"
     pagecolor="#ffffff"
     bordercolor="#000000"
     borderopacity="0.25"
     inkscape:showpageshadow="2"
     inkscape:pageopacity="0.0"
     inkscape:pagecheckerboard="0"
     inkscape:deskcolor="#d1d1d1"
     inkscape:zoom="56.71875"
     inkscape:cx="15.991185"
     inkscape:cy="16"
     inkscape:window-width="3840"
     inkscape:window-height="2054"
     inkscape:window-x="5749"
     inkscape:window-y="-11"
     inkscape:window-maximized="1"
     inkscape:current-layer="layer1" />
  <defs
     id="defs2">
    <linearGradient
       id="a"
       x1="0.5"
       x2="0.5"
       y2="1"
       gradientUnits="objectBoundingBox">
      <stop
         offset="0"
         stop-color="#8a6d00"
         id="stop1" />
      <stop
         offset="1"
         stop-color="#f1bf00"
         id="stop2" />
    </linearGradient>
    <clipPath
       id="c">
      <rect
         width="32"
         height="32"
         id="rect2" />
    </clipPath>
  </defs>
  <g
     id="b">
    <g
       transform="translate(0.796 4.408)"
       id="g8">
      <path
         d="M-10008-10482.843l16.188,10.105,13.515-10.105-16.512-8.157Z"
         transform="translate(10008 10493.885)"
         fill="#ffdc00"
         id="path2" />
      <path
         d="M-9906.379-10481.035l8.623,4.981.145-4.981-8.771-4.782Z"
         transform="translate(9914.058 10492.352)"
         fill="#d6a900"
         id="path3" />
      <path
         d="M-9888.85-10475.07l5.781-4.144v-4.669l-5.781,3.848Z"
         transform="translate(9905.154 10491.461)"
         fill="#a48700"
         id="path4" />
      <path
         d="M-9906.28-10489l8.7,4.788,5.612-3.837-8.653-4.337Z"
         transform="translate(9914.016 10495.641)"
         fill="#fff69f"
         id="path5" />
      <path
         d="M-9902.63-10487.994l5.228,2.607,3.594-2.426-4.818-2.471Z"
         transform="translate(9912.163 10494.567)"
         fill="#f29d00"
         id="path6" />
      <path
         d="M1.23-14.7a1.76,1.76,0,0,1,.957.284c.117.054.272,7.749.272,7.968,0,.421-.55.764-1.23.764S0-6.028,0-6.451c0-.122.046-7.727.24-7.942A1.415,1.415,0,0,1,1.23-14.7Z"
         transform="translate(17.216 14.703)"
         fill="url(#a)"
         id="path7" />
      <path
         d="M.722-.412c.407,0,.734.114.734.254S1.129.1.722.1-.017-.016-.017-.158.313-.412.722-.412Z"
         transform="translate(17.717 0.56)"
         fill="#504200"
         id="path8" />
    </g>
  </g>
  <g
     inkscape:groupmode="layer"
     id="layer1"
     inkscape:label="flavour">
    <g
       id="a-0"
       transform="matrix(0.5559895,0,0,0.5559895,17.277397,9.70723)"
       stroke-width="1.1209">
      <ellipse
         transform="translate(11,26)"
         cx="5"
         cy="1.5"
         rx="5"
         ry="1.5"
         fill="#2f2f2f"
         id="ellipse1" />
      <path
         transform="translate(14.704,21.289)"
         d="M 0,0 H 3.025 V 5.663 A 3.033,3.033 0 0 1 1.5,6.239 2.888,2.888 0 0 1 0,5.663 Z"
         fill="#976c4f"
         id="path1" />
      <path
         transform="translate(9,11.008)"
         d="m 7.334,0 4.736,8.4 2.6,2.733 A 20.119,20.119 0 0 1 7.336,12.833 20.119,20.119 0 0 1 0,11.138 c 0,0 0.4,0.051 2.231,-2.733 C 4.062,5.621 7.334,0 7.334,0 Z"
         fill="#367c01"
         id="path2-9" />
      <path
         transform="translate(9.86,8.851)"
         d="m 6.5,0 c 0,0 2.063,3.507 3.687,5.644 A 13.023,13.023 0 0 0 12.992,8.55 20.054,20.054 0 0 1 6.5,9.855 20.054,20.054 0 0 1 0,8.55 16.117,16.117 0 0 0 2.643,5.644 C 4.267,3.507 6.5,0 6.5,0 Z"
         fill="#54b60b"
         id="path3-4" />
      <path
         transform="translate(12.305,2.938)"
         d="M 4.156,0 A 27.325,27.325 0 0 0 5.843,4.841 16.427,16.427 0 0 0 8.311,8.476 9.173,9.173 0 0 1 4.156,9.77 9.173,9.173 0 0 1 0,8.476 18.177,18.177 0 0 0 2.377,4.841 32.086,32.086 0 0 0 4.156,0 Z"
         fill="#83e637"
         id="path4-8" />
    </g>
  </g>
</svg>
