<?xml version="1.0" encoding="UTF-8" standalone="no"?>
<svg
   width="32"
   height="32"
   viewBox="0 0 32 32"
   version="1.1"
   id="svg4"
   sodipodi:docname="ZoneIndustrialWarehouses_Agriculture.svg"
   inkscape:version="1.4.2 (f4327f4, 2025-05-13)"
   xmlns:inkscape="http://www.inkscape.org/namespaces/inkscape"
   xmlns:sodipodi="http://sodipodi.sourceforge.net/DTD/sodipodi-0.dtd"
   xmlns="http://www.w3.org/2000/svg"
   xmlns:svg="http://www.w3.org/2000/svg">
  <sodipodi:namedview
     id="namedview4"
     pagecolor="#ffffff"
     bordercolor="#000000"
     borderopacity="0.25"
     inkscape:showpageshadow="2"
     inkscape:pageopacity="0.0"
     inkscape:pagecheckerboard="0"
     inkscape:deskcolor="#d1d1d1"
     inkscape:zoom="56.71875"
     inkscape:cx="15.991185"
     inkscape:cy="16"
     inkscape:window-width="3840"
     inkscape:window-height="2054"
     inkscape:window-x="5749"
     inkscape:window-y="-11"
     inkscape:window-maximized="1"
     inkscape:current-layer="layer8" />
  <defs
     id="defs1">
    <clipPath
       id="b">
      <rect
         width="32"
         height="32"
         id="rect1" />
    </clipPath>
  </defs>
  <g
     id="a">
    <g
       transform="translate(0.796 4.408)"
       id="g4">
      <path
         d="M-10008-10482.843l16.188,10.105,13.515-10.105-16.512-8.157Z"
         transform="translate(10008 10493.885)"
         fill="#ffdc00"
         id="path1" />
      <path
         d="M-9908.062-10481.035l9.781,5.825v-4.525l-9.781-5.761Z"
         transform="translate(9914.058 10492.352)"
         fill="#d6a900"
         id="path2" />
      <path
         d="M-9889.493-10474.244l7.733-5.791v-4.338a3.728,3.728,0,0,0-3.641.549c-1.934,1.372-4.093,4.939-4.093,4.939Z"
         transform="translate(9905.154 10491.461)"
         fill="#a48700"
         id="path3" />
      <path
         d="M-9907.949-10488.719l9.581,5.654s2.016-3.527,3.972-4.882a4.189,4.189,0,0,1,3.852-.535l-9.791-4.284a4.465,4.465,0,0,0-3.565.33A17.184,17.184,0,0,0-9907.949-10488.719Z"
         transform="translate(9914.016 10495.641)"
         fill="#fff69f"
         id="path4" />
    </g>
  </g>
  <g
     inkscape:groupmode="layer"
     id="layer8"
     inkscape:label="flavour">
    <g
       id="a-7"
       transform="matrix(0.57622082,0,0,0.57622082,17.037908,9.7883163)">
      <g
         transform="translate(10,4.068)"
         id="g7">
        <path
           d="m 6056.55,-4794.594 c 0,0 -3.623,-1.7 -4.657,-3.6 a 7.01,7.01 0 0 1 -0.519,-4.283 c 0,0 3.882,1.876 5.176,3.846 a 3.938,3.938 0 0 1 0,4.037 z"
           transform="translate(-6051.246,4818.275)"
           fill="#d4ab64"
           id="path1-6" />
        <path
           d="m 6051.873,-4794.594 c 0,0 3.943,-1.7 5.07,-3.6 a 6.48,6.48 0 0 0 0.564,-4.283 c 0,0 -4.226,1.876 -5.634,3.846 a 3.67,3.67 0 0 0 0,4.037 z"
           transform="translate(-6044.753,4818.275)"
           fill="#d4ab64"
           id="path2-1" />
        <path
           d="m 6056.55,-4794.594 c 0,0 -3.623,-1.7 -4.657,-3.6 a 7.01,7.01 0 0 1 -0.519,-4.283 c 0,0 3.882,1.876 5.176,3.846 a 3.938,3.938 0 0 1 0,4.037 z"
           transform="translate(-6051.246,4813.094)"
           fill="#e1b66b"
           id="path3-8" />
        <path
           d="m 6051.873,-4794.594 c 0,0 3.943,-1.7 5.07,-3.6 a 6.48,6.48 0 0 0 0.564,-4.283 c 0,0 -4.226,1.876 -5.634,3.846 a 3.67,3.67 0 0 0 0,4.037 z"
           transform="translate(-6044.753,4812.749)"
           fill="#e1b66b"
           id="path4-9" />
        <path
           d="m 6056.55,-4794.594 c 0,0 -3.623,-1.7 -4.657,-3.6 a 7.01,7.01 0 0 1 -0.519,-4.283 c 0,0 3.882,1.876 5.176,3.846 a 3.938,3.938 0 0 1 0,4.037 z"
           transform="translate(-6051.246,4807.741)"
           fill="#f4c36d"
           id="path5" />
        <path
           d="m 6051.873,-4794.594 c 0,0 3.943,-1.7 5.07,-3.6 a 6.48,6.48 0 0 0 0.564,-4.283 c 0,0 -4.226,1.876 -5.634,3.846 a 3.67,3.67 0 0 0 0,4.037 z"
           transform="translate(-6044.753,4807.396)"
           fill="#f4c36d"
           id="path6" />
        <path
           d="m 6066.118,-4876.77 c 0,0 -2.428,-0.617 -2.428,-2.672 0,-2.055 2.428,-5.545 2.428,-5.545 0,0 2.318,3.49 2.318,5.545 0,2.055 -2.318,2.672 -2.318,2.672 z"
           transform="translate(-6059.915,4884.986)"
           fill="#f4c36d"
           id="path7" />
      </g>
    </g>
  </g>
</svg>
