<?xml version="1.0" encoding="UTF-8" standalone="no"?>
<svg
   width="32"
   height="32"
   viewBox="0 0 32 32"
   version="1.1"
   id="svg4"
   sodipodi:docname="ZoneIndustrialWarehouses_Oil.svg"
   inkscape:version="1.4.2 (f4327f4, 2025-05-13)"
   xmlns:inkscape="http://www.inkscape.org/namespaces/inkscape"
   xmlns:sodipodi="http://sodipodi.sourceforge.net/DTD/sodipodi-0.dtd"
   xmlns="http://www.w3.org/2000/svg"
   xmlns:svg="http://www.w3.org/2000/svg">
  <sodipodi:namedview
     id="namedview4"
     pagecolor="#ffffff"
     bordercolor="#000000"
     borderopacity="0.25"
     inkscape:showpageshadow="2"
     inkscape:pageopacity="0.0"
     inkscape:pagecheckerboard="0"
     inkscape:deskcolor="#d1d1d1"
     inkscape:zoom="56.71875"
     inkscape:cx="15.991185"
     inkscape:cy="16"
     inkscape:window-width="3840"
     inkscape:window-height="2054"
     inkscape:window-x="5749"
     inkscape:window-y="-11"
     inkscape:window-maximized="1"
     inkscape:current-layer="layer5" />
  <defs
     id="defs1">
    <clipPath
       id="b">
      <rect
         width="32"
         height="32"
         id="rect1" />
    </clipPath>
  </defs>
  <g
     id="a">
    <g
       transform="translate(0.796 4.408)"
       id="g4">
      <path
         d="M-10008-10482.843l16.188,10.105,13.515-10.105-16.512-8.157Z"
         transform="translate(10008 10493.885)"
         fill="#ffdc00"
         id="path1" />
      <path
         d="M-9908.062-10481.035l9.781,5.825v-4.525l-9.781-5.761Z"
         transform="translate(9914.058 10492.352)"
         fill="#d6a900"
         id="path2" />
      <path
         d="M-9889.493-10474.244l7.733-5.791v-4.338a3.728,3.728,0,0,0-3.641.549c-1.934,1.372-4.093,4.939-4.093,4.939Z"
         transform="translate(9905.154 10491.461)"
         fill="#a48700"
         id="path3" />
      <path
         d="M-9907.949-10488.719l9.581,5.654s2.016-3.527,3.972-4.882a4.189,4.189,0,0,1,3.852-.535l-9.791-4.284a4.465,4.465,0,0,0-3.565.33A17.184,17.184,0,0,0-9907.949-10488.719Z"
         transform="translate(9914.016 10495.641)"
         fill="#fff69f"
         id="path4" />
    </g>
  </g>
  <g
     inkscape:groupmode="layer"
     id="layer5"
     inkscape:label="flavour">
    <g
       id="a-5"
       transform="matrix(0.48033884,0,0,0.48033884,18.802535,12.289798)">
      <g
         transform="translate(7,3.37)"
         id="g2">
        <path
           d="m 6055.673,-5254.055 c 0,0 -8.138,10.357 -8.138,16.566 0,6.209 3.852,8.269 8.138,8.269 4.286,0 9,-2.06 9,-8.269 0,-6.209 -9,-16.566 -9,-16.566 z"
           transform="translate(-6047.535,5254.055)"
           fill="#313131"
           id="path1-2" />
        <ellipse
           cx="5.5"
           cy="5"
           rx="5.5"
           ry="5"
           transform="translate(1,12.63)"
           fill="#524941"
           id="ellipse1" />
        <circle
           cx="3"
           cy="3"
           r="3"
           transform="translate(3,14.63)"
           fill="#ffddba"
           id="circle1" />
      </g>
    </g>
  </g>
</svg>
