<?xml version="1.0" encoding="UTF-8" standalone="no"?>
<svg
   width="32"
   height="32"
   viewBox="0 0 32 32"
   version="1.1"
   id="svg4"
   sodipodi:docname="ZoneIndustrialWarehouses_Forestry.svg"
   inkscape:version="1.4.2 (f4327f4, 2025-05-13)"
   xmlns:inkscape="http://www.inkscape.org/namespaces/inkscape"
   xmlns:sodipodi="http://sodipodi.sourceforge.net/DTD/sodipodi-0.dtd"
   xmlns="http://www.w3.org/2000/svg"
   xmlns:svg="http://www.w3.org/2000/svg">
  <sodipodi:namedview
     id="namedview4"
     pagecolor="#ffffff"
     bordercolor="#000000"
     borderopacity="0.25"
     inkscape:showpageshadow="2"
     inkscape:pageopacity="0.0"
     inkscape:pagecheckerboard="0"
     inkscape:deskcolor="#d1d1d1"
     inkscape:zoom="56.71875"
     inkscape:cx="15.991185"
     inkscape:cy="16"
     inkscape:window-width="3840"
     inkscape:window-height="2054"
     inkscape:window-x="5749"
     inkscape:window-y="-11"
     inkscape:window-maximized="1"
     inkscape:current-layer="layer4" />
  <defs
     id="defs1">
    <clipPath
       id="b">
      <rect
         width="32"
         height="32"
         id="rect1" />
    </clipPath>
  </defs>
  <g
     id="a">
    <g
       transform="translate(0.796 4.408)"
       id="g4">
      <path
         d="M-10008-10482.843l16.188,10.105,13.515-10.105-16.512-8.157Z"
         transform="translate(10008 10493.885)"
         fill="#ffdc00"
         id="path1" />
      <path
         d="M-9908.062-10481.035l9.781,5.825v-4.525l-9.781-5.761Z"
         transform="translate(9914.058 10492.352)"
         fill="#d6a900"
         id="path2" />
      <path
         d="M-9889.493-10474.244l7.733-5.791v-4.338a3.728,3.728,0,0,0-3.641.549c-1.934,1.372-4.093,4.939-4.093,4.939Z"
         transform="translate(9905.154 10491.461)"
         fill="#a48700"
         id="path3" />
      <path
         d="M-9907.949-10488.719l9.581,5.654s2.016-3.527,3.972-4.882a4.189,4.189,0,0,1,3.852-.535l-9.791-4.284a4.465,4.465,0,0,0-3.565.33A17.184,17.184,0,0,0-9907.949-10488.719Z"
         transform="translate(9914.016 10495.641)"
         fill="#fff69f"
         id="path4" />
    </g>
  </g>
  <g
     inkscape:groupmode="layer"
     id="layer4"
     inkscape:label="flavour">
    <g
       id="a-5"
       transform="matrix(0.5441373,0,0,0.5441373,17.522677,9.9098973)"
       stroke-width="1.1209">
      <ellipse
         transform="translate(11,26)"
         cx="5"
         cy="1.5"
         rx="5"
         ry="1.5"
         fill="#2f2f2f"
         id="ellipse1" />
      <path
         transform="translate(14.704,21.289)"
         d="M 0,0 H 3.025 V 5.663 A 3.033,3.033 0 0 1 1.5,6.239 2.888,2.888 0 0 1 0,5.663 Z"
         fill="#976c4f"
         id="path1-5" />
      <path
         transform="translate(9,11.008)"
         d="m 7.334,0 4.736,8.4 2.6,2.733 A 20.119,20.119 0 0 1 7.336,12.833 20.119,20.119 0 0 1 0,11.138 c 0,0 0.4,0.051 2.231,-2.733 C 4.062,5.621 7.334,0 7.334,0 Z"
         fill="#367c01"
         id="path2-1" />
      <path
         transform="translate(9.86,8.851)"
         d="m 6.5,0 c 0,0 2.063,3.507 3.687,5.644 A 13.023,13.023 0 0 0 12.992,8.55 20.054,20.054 0 0 1 6.5,9.855 20.054,20.054 0 0 1 0,8.55 16.117,16.117 0 0 0 2.643,5.644 C 4.267,3.507 6.5,0 6.5,0 Z"
         fill="#54b60b"
         id="path3-7" />
      <path
         transform="translate(12.305,2.938)"
         d="M 4.156,0 A 27.325,27.325 0 0 0 5.843,4.841 16.427,16.427 0 0 0 8.311,8.476 9.173,9.173 0 0 1 4.156,9.77 9.173,9.173 0 0 1 0,8.476 18.177,18.177 0 0 0 2.377,4.841 32.086,32.086 0 0 0 4.156,0 Z"
         fill="#83e637"
         id="path4-1" />
    </g>
  </g>
</svg>
