<?xml version="1.0" encoding="UTF-8" standalone="no"?>
<svg
   width="32"
   height="32"
   viewBox="0 0 32 32"
   version="1.1"
   id="svg4"
   sodipodi:docname="ZoneIndustrialWarehouses_Ore.svg"
   inkscape:version="1.4.2 (f4327f4, 2025-05-13)"
   xmlns:inkscape="http://www.inkscape.org/namespaces/inkscape"
   xmlns:sodipodi="http://sodipodi.sourceforge.net/DTD/sodipodi-0.dtd"
   xmlns="http://www.w3.org/2000/svg"
   xmlns:svg="http://www.w3.org/2000/svg">
  <sodipodi:namedview
     id="namedview4"
     pagecolor="#ffffff"
     bordercolor="#000000"
     borderopacity="0.25"
     inkscape:showpageshadow="2"
     inkscape:pageopacity="0.0"
     inkscape:pagecheckerboard="0"
     inkscape:deskcolor="#d1d1d1"
     inkscape:zoom="56.71875"
     inkscape:cx="15.991185"
     inkscape:cy="16"
     inkscape:window-width="3840"
     inkscape:window-height="2054"
     inkscape:window-x="5749"
     inkscape:window-y="-11"
     inkscape:window-maximized="1"
     inkscape:current-layer="layer7" />
  <defs
     id="defs1">
    <clipPath
       id="b">
      <rect
         width="32"
         height="32"
         id="rect1" />
    </clipPath>
    <clipPath
       id="clip-Ore">
      <rect
         width="40"
         height="40"
         id="rect1-2"
         x="0"
         y="0" />
    </clipPath>
  </defs>
  <g
     id="a">
    <g
       transform="translate(0.796 4.408)"
       id="g4">
      <path
         d="M-10008-10482.843l16.188,10.105,13.515-10.105-16.512-8.157Z"
         transform="translate(10008 10493.885)"
         fill="#ffdc00"
         id="path1" />
      <path
         d="M-9908.062-10481.035l9.781,5.825v-4.525l-9.781-5.761Z"
         transform="translate(9914.058 10492.352)"
         fill="#d6a900"
         id="path2" />
      <path
         d="M-9889.493-10474.244l7.733-5.791v-4.338a3.728,3.728,0,0,0-3.641.549c-1.934,1.372-4.093,4.939-4.093,4.939Z"
         transform="translate(9905.154 10491.461)"
         fill="#a48700"
         id="path3" />
      <path
         d="M-9907.949-10488.719l9.581,5.654s2.016-3.527,3.972-4.882a4.189,4.189,0,0,1,3.852-.535l-9.791-4.284a4.465,4.465,0,0,0-3.565.33A17.184,17.184,0,0,0-9907.949-10488.719Z"
         transform="translate(9914.016 10495.641)"
         fill="#fff69f"
         id="path4" />
    </g>
  </g>
  <g
     inkscape:groupmode="layer"
     id="layer7"
     inkscape:label="flavour">
    <g
       id="Ore"
       clip-path="url(#clip-Ore)"
       transform="matrix(0.41929182,0,0,0.41929182,15.75568,12.771628)">
      <g
         id="ResourceOre"
         transform="translate(5.014,9.244)">
        <g
           id="Group_191"
           data-name="Group 191"
           transform="translate(0,2.124)">
          <path
             id="Path_514"
             data-name="Path 514"
             d="m 6059.041,-5359.831 -14.759,12.256 3.554,5.608 a 12.555,12.555 0 0 1 4.316,1.107 c 1.734,0.937 13.392,0 13.392,0 l 6.939,-1.981 1.771,-4.733 z"
             transform="translate(-6044.281,5359.831)"
             fill="#7c7c7c" />
        </g>
        <path
           id="Path_532"
           data-name="Path 532"
           d="M 3.127,13.682 -0.089,4.832 6.055,-0.115 13.4,4.992 12.2,11.576 Z"
           transform="rotate(-21,9.7005953,-20.737598)"
           fill="#51f0da" />
        <path
           id="Path_3269"
           data-name="Path 3269"
           d="M -0.089,4.832 6.055,-0.115 13.4,4.992 Z"
           transform="rotate(-21,9.7005953,-20.737598)"
           fill="#c6fff7" />
      </g>
    </g>
  </g>
</svg>
