<?xml version="1.0" encoding="UTF-8" standalone="no"?>
<svg
   width="32"
   height="32"
   viewBox="0 0 32 32"
   version="1.1"
   id="svg8"
   sodipodi:docname="ZoneIndustrialManufacturing_Oil.svg"
   inkscape:version="1.4.2 (f4327f4, 2025-05-13)"
   xmlns:inkscape="http://www.inkscape.org/namespaces/inkscape"
   xmlns:sodipodi="http://sodipodi.sourceforge.net/DTD/sodipodi-0.dtd"
   xmlns="http://www.w3.org/2000/svg"
   xmlns:svg="http://www.w3.org/2000/svg">
  <sodipodi:namedview
     id="namedview8"
     pagecolor="#ffffff"
     bordercolor="#000000"
     borderopacity="0.25"
     inkscape:showpageshadow="2"
     inkscape:pageopacity="0.0"
     inkscape:pagecheckerboard="0"
     inkscape:deskcolor="#d1d1d1"
     inkscape:zoom="56.71875"
     inkscape:cx="15.991185"
     inkscape:cy="16"
     inkscape:window-width="3840"
     inkscape:window-height="2054"
     inkscape:window-x="5749"
     inkscape:window-y="-11"
     inkscape:window-maximized="1"
     inkscape:current-layer="layer2" />
  <defs
     id="defs2">
    <linearGradient
       id="a"
       x1="0.5"
       x2="0.5"
       y2="1"
       gradientUnits="objectBoundingBox">
      <stop
         offset="0"
         stop-color="#8a6d00"
         id="stop1" />
      <stop
         offset="1"
         stop-color="#f1bf00"
         id="stop2" />
    </linearGradient>
    <clipPath
       id="c">
      <rect
         width="32"
         height="32"
         id="rect2" />
    </clipPath>
  </defs>
  <g
     id="b">
    <g
       transform="translate(0.796 4.408)"
       id="g8">
      <path
         d="M-10008-10482.843l16.188,10.105,13.515-10.105-16.512-8.157Z"
         transform="translate(10008 10493.885)"
         fill="#ffdc00"
         id="path2" />
      <path
         d="M-9906.379-10481.035l8.623,4.981.145-4.981-8.771-4.782Z"
         transform="translate(9914.058 10492.352)"
         fill="#d6a900"
         id="path3" />
      <path
         d="M-9888.85-10475.07l5.781-4.144v-4.669l-5.781,3.848Z"
         transform="translate(9905.154 10491.461)"
         fill="#a48700"
         id="path4" />
      <path
         d="M-9906.28-10489l8.7,4.788,5.612-3.837-8.653-4.337Z"
         transform="translate(9914.016 10495.641)"
         fill="#fff69f"
         id="path5" />
      <path
         d="M-9902.63-10487.994l5.228,2.607,3.594-2.426-4.818-2.471Z"
         transform="translate(9912.163 10494.567)"
         fill="#f29d00"
         id="path6" />
      <path
         d="M1.23-14.7a1.76,1.76,0,0,1,.957.284c.117.054.272,7.749.272,7.968,0,.421-.55.764-1.23.764S0-6.028,0-6.451c0-.122.046-7.727.24-7.942A1.415,1.415,0,0,1,1.23-14.7Z"
         transform="translate(17.216 14.703)"
         fill="url(#a)"
         id="path7" />
      <path
         d="M.722-.412c.407,0,.734.114.734.254S1.129.1.722.1-.017-.016-.017-.158.313-.412.722-.412Z"
         transform="translate(17.717 0.56)"
         fill="#504200"
         id="path8" />
    </g>
  </g>
  <g
     inkscape:groupmode="layer"
     id="layer2"
     inkscape:label="flavour">
    <g
       id="a-8"
       transform="matrix(0.47749915,0,0,0.47749915,18.90634,12.369891)">
      <g
         transform="translate(7,3.37)"
         id="g2">
        <path
           d="m 6055.673,-5254.055 c 0,0 -8.138,10.357 -8.138,16.566 0,6.209 3.852,8.269 8.138,8.269 4.286,0 9,-2.06 9,-8.269 0,-6.209 -9,-16.566 -9,-16.566 z"
           transform="translate(-6047.535,5254.055)"
           fill="#313131"
           id="path1" />
        <ellipse
           cx="5.5"
           cy="5"
           rx="5.5"
           ry="5"
           transform="translate(1,12.63)"
           fill="#524941"
           id="ellipse1" />
        <circle
           cx="3"
           cy="3"
           r="3"
           transform="translate(3,14.63)"
           fill="#ffddba"
           id="circle1" />
      </g>
    </g>
  </g>
</svg>
